<svg xmlns="http://www.w3.org/2000/svg" xmlns:xlink="http://www.w3.org/1999/xlink" width="128" height="128"><style><![CDATA[.B{fill-rule:evenodd}.C{fill-opacity:1}.D{stroke:none}.E{fill-opacity:.96}.F{opacity:.933}.G{clip-path:url(#a)}.H{fill:#2a180f}.I{filter:url(#T)}]]></style><defs><filter height="1.536" y="-.268" width="1.064" x="-.032" id="A"><feGaussianBlur stdDeviation="1.395"/></filter><filter height="1.116" y="-.058" width="1.417" x="-.209" id="B"><feGaussianBlur stdDeviation=".139"/></filter><linearGradient id="C" xlink:href="#Ai"><stop offset="0" stop-color="#c92424"/><stop offset=".769" stop-color="#9d1e1e" stop-opacity=".98"/><stop offset="1" stop-color="#711919" stop-opacity=".96"/></linearGradient><linearGradient id="D" xlink:href="#Ai"><stop offset="0" stop-color="#2e2f34"/><stop offset="1" stop-color="#3b3944"/></linearGradient><linearGradient id="E" xlink:href="#Ai"><stop offset="0" stop-color="#fcd9bc"/><stop offset="1" stop-color="#fcd9bc" stop-opacity="0"/></linearGradient><linearGradient id="F" xlink:href="#Ai"><stop offset="0" stop-color="#faf0e5"/><stop offset=".591" stop-color="#f7e7d6"/><stop offset="1" stop-color="#ffd9b9"/></linearGradient><filter id="G"><feGaussianBlur stdDeviation="1.641"/></filter><clipPath id="H"><path d="M341.25 409.625c-1.513 7.202-5.74 23.396-.5 27.25-.646 7-7.08 9.644-15 11.188h-1.5c-7.92-1.544-14.354-4.188-15-11.187 5.24-3.854 1.013-20.048-.5-27.25L325 417.03l16.25-7.406z" opacity=".75" fill="url(#radialGradient3709)" class="B C D"/></clipPath><filter id="I" height="1.143" y="-.072" width="1.319" x="-.159"><feGaussianBlur stdDeviation=".106"/></filter><linearGradient id="J" xlink:href="#Ai"><stop offset="0" stop-color="#f1e4d4"/><stop offset="1" stop-color="#f1e4d4" stop-opacity="0"/></linearGradient><filter id="K" height="1.174" y="-.087" width="1.23" x="-.115"><feGaussianBlur stdDeviation=".624"/></filter><linearGradient id="L" xlink:href="#Ai"><stop offset="0" stop-color="#e2e2e2"/><stop offset="1" stop-color="#fff"/></linearGradient><linearGradient id="M" xlink:href="#Ai"><stop offset="0" stop-color="#fff"/><stop offset=".5" stop-color="#f9f9f9"/><stop offset="1" stop-color="#aeaeae"/></linearGradient><filter id="N"><feGaussianBlur stdDeviation="1.73"/></filter><clipPath id="O"><path d="M63.014 7.4c-7.823.206-16.878 3.892-20.025 10.88-3.206 7.12-2.74 15.62-.817 25.447s9.237 20.052 12.443 23.75c3.038 3.505 5.93 2.87 8.4 2.796h.44c2.47.075 5.36.71 8.4-2.796 3.206-3.698 10.52-13.922 12.443-23.75s2.388-18.328-.817-25.447C80.332 11.29 71.278 7.605 63.455 7.4h-.44z" fill="url(#P)" class="B C D"/></clipPath><radialGradient cx="324.398" cy="396.093" r="22.445" fx="330.044" fy="392.754" id="P" xlink:href="#F" gradientTransform="matrix(1.0059645,0,0,1.4472234,-263.09786,-535.35257)"/><clipPath id="Q"><path d="M116.903 7.4c-7.823.206-16.878 3.892-20.025 10.88-3.206 7.12-1.73 15.474-.817 25.447 1.352 14.762 9.237 20.052 12.443 23.75 3.038 3.505 5.93 2.87 8.4 2.796h.44c2.47.075 5.36.71 8.4-2.796 3.206-3.698 11.66-9.558 12.443-23.75.552-10 2.388-18.328-.817-25.447-3.147-6.99-12.202-10.674-20.025-10.88h-.44z" fill="url(#R)" class="B C D"/></clipPath><radialGradient cx="324.398" cy="396.093" r="22.445" fx="330.044" fy="392.754" id="R" xlink:href="#F" gradientTransform="matrix(1.0059645,0,0,1.4472234,-209.2095,-535.35257)"/><filter id="S"><feGaussianBlur stdDeviation=".425"/></filter><filter height="1.214" y="-.107" width="1.08" x="-.04" id="T"><feGaussianBlur stdDeviation=".712"/></filter><filter height="1.246" y="-.123" width="1.54" x="-.27" id="U"><feGaussianBlur stdDeviation=".33"/></filter><clipPath id="V"><path d="M-114.062 75.97l-2 3.375c-8.21 15.645-3.267 30.798 4.344 44.72l9.063.094h4l8.875-.062c5.587-13.366 14.307-27.245 4.375-45.062l-1.844-3.062c-2.57 4.488-7.164 9.436-13.406 12.03-5.3-2.35-11.594-8.492-13.406-12.03z" fill="url(#W)" class="B C D"/></clipPath><linearGradient x1="-99.53" y1="73.406" x2="-99.53" y2="143.619" id="W" xlink:href="#M"/><filter height="1.05" y="-.025" width="1.221" x="-.11" id="X"><feGaussianBlur stdDeviation=".247"/></filter><filter height="1.384" y="-.192" width="1.046" x="-.023" id="Y"><feGaussianBlur stdDeviation="1"/></filter><filter id="Z"><feGaussianBlur stdDeviation="1.162"/></filter><clipPath id="a"><path d="M80.24-11.753c-.51 16.973-1.9 33.077-4.646 47.818 13.394-.266 29.766-1.678 42.675-9.026l1.593-1.858s.707-7.378-2.024-14.8c-.896-2.434-1.073-3.962-4.148-5.343-8.915-4.003-26.126-9.973-31.956-14.302l-1.493-2.49zm-32.554.3l-1.327 2.2c-5.83 4.33-23.04 10.3-31.956 14.302-3.075 1.38-3.252 2.91-4.148 5.343-2.73 7.422-2.024 14.8-2.024 14.8l1.593 1.858c12.84 7.3 29.117 8.716 42.476 8.993-2.724-14.645-4.095-30.636-4.613-47.486zm4.613 47.486l9.623.1c-2.923.003-6.202-.03-9.623-.1z" fill="url(#b)" class="B C D"/></clipPath><linearGradient x1="76.535" y1="34.416" x2="76.535" y2="-6.386" id="b" xlink:href="#D"/><filter height="1.203" y="-.101" width="1.121" x="-.06" id="c"><feGaussianBlur stdDeviation=".915"/></filter><filter height="1.444" y="-.222" width="1.397" x="-.199" id="d"><feGaussianBlur stdDeviation=".781"/></filter><filter id="e"><feGaussianBlur stdDeviation=".461"/></filter><clipPath id="f"><path d="M65.653 122.576c2.354 8.647 3.922 17.394 5.882 30.064H56.213c1.692-12.507 3.087-19.872 6.03-30.058l3.4-.005z" fill="url(#g)" class="B C D"/></clipPath><radialGradient cx="64.182" cy="116.1" r="7.946" fx="64.585" fy="111.88" id="g" xlink:href="#C" gradientTransform="matrix(0.8481929,7.6765389e-8,-3.9560684e-7,4.3473551,9.9552319,-352.04119)"/><filter height="1.149" y="-.075" width="1.294" x="-.147" id="h"><feGaussianBlur stdDeviation=".937"/></filter><filter id="i"><feGaussianBlur stdDeviation=".847"/></filter><clipPath id="j"><path d="M46.954 51.15c1.57 6.607 5.957 21.463.52 24.998.67 6.42 7.344 8.847 15.563 10.263h1.556C72.8 84.996 79.483 82.57 80.154 76.15c-5.438-3.535-1.05-18.39.52-24.998l-16.86 6.794-16.86-6.794z" fill="url(#k)" class="B C D"/></clipPath><linearGradient xlink:href="#E" id="k" x1="75.922" y1="70.859" x2="59.921" y2="70.859"/><filter id="l"><feGaussianBlur stdDeviation="1.822"/></filter><filter id="m" x="-.04" width="1.08" y="-.126" height="1.253"><feGaussianBlur stdDeviation="1.853"/></filter><radialGradient gradientTransform="matrix(1.5841831,0.2374271,-0.28448622,1.7867905,377.00167,204.32421)" r="56.164" fy="-56.807" fx="-673.012" cy="-56.807" cx="-673.012" id="n" xlink:href="#AI"/><radialGradient r="115.805" fy="-78.957" fx="-35.088" cy="-67.683" cx="-9.626" gradientTransform="matrix(0.42532218,0,0,0.35491455,68.984524,113.24684)" id="o" xlink:href="#Ai"><stop offset="0" stop-color="#fff"/><stop offset=".5" stop-color="#ededed"/><stop offset=".75" stop-color="#e3e3e3"/><stop offset="1" stop-color="#8c8c8c"/></radialGradient><radialGradient r="56.781" fy="85.201" fx="52.793" cy="85.201" cx="52.793" gradientTransform="matrix(1,0,0,3.2171551,0,-190.67008)" id="p" xlink:href="#Ai"><stop offset="0" stop-color="#484848"/><stop offset="1" stop-color="#969696"/></radialGradient><radialGradient r="65.186" fy="-122.291" fx="-327.881" cy="-75.846" cx="-313.779" gradientTransform="matrix(1,0,0,1.1440679,0,10.926917)" id="q" xlink:href="#Ai"><stop offset="0" stop-color="#fff" stop-opacity=".873"/><stop offset="1" stop-color="#fff" stop-opacity="0"/></radialGradient><radialGradient r="65.186" fy="-75.846" fx="-313.779" cy="-75.846" cx="-313.779" gradientTransform="matrix(1,0,0,1.1440679,0,10.926917)" id="r" xlink:href="#Ai"><stop offset="0"/><stop offset="1" stop-opacity="0"/></radialGradient><radialGradient r="65.186" fy="-124.012" fx="-343.31" cy="-75.846" cx="-313.779" gradientTransform="matrix(1,0,0,1.1440679,0,10.926917)" id="s" xlink:href="#Ai"><stop offset="0" stop-color="#fff" stop-opacity="0"/><stop offset=".384" stop-opacity="0"/><stop offset=".819" stop-opacity=".08"/><stop offset="1"/></radialGradient><linearGradient y2="78.232" x2="-329.332" y1="-226.544" x1="-267.98" id="t" xlink:href="#Ai"><stop offset="0" stop-color="#fff"/><stop offset="1" stop-color="#fff" stop-opacity="0"/></linearGradient><radialGradient r="55.902" fy="-51.797" fx="-675.368" cy="-51.797" cx="-675.368" gradientTransform="matrix(1,0,0,1.0237352,0,1.2294083)" id="u" xlink:href="#Ai"><stop offset="0" stop-color="#00f5f1"/><stop offset="1" stop-color="#00f5f1" stop-opacity="0"/></radialGradient><radialGradient r="65.186" fy="-88.288" fx="-318.596" cy="-88.288" cx="-318.596" gradientTransform="matrix(0.9991719,0.04068759,-0.1156105,2.8390666,-10.470822,173.53753)" id="v" xlink:href="#Ai"><stop offset="0" stop-color="#004ac8"/><stop offset="1" stop-color="#c6ddff"/></radialGradient><filter id="w"><feGaussianBlur stdDeviation=".831"/></filter><clipPath id="x"><path d="M10.817 61.753c39.998-53.33 82.663-17.777 108.44 22.22C86.41 19.962 47.26-2.244 10.817 61.753z" fill="#777" class="B C D"/></clipPath><filter id="y"><feGaussianBlur stdDeviation=".567"/></filter><clipPath id="z"><path d="M22.44 87.516S40.183 64.31 61.573 68.494s47.458 38.14 47.458 38.14c-7.617 11.68-26.706 15.826-41.655 16.99 15.587-.05 36.483 4.107 53.522-15.55 0 0-28.44-46.665-57.03-51.473S11.706 88.05 11.706 88.05c8.786 20.233 27.807 28.995 49.713 34.525-18.51-8.996-32-17.03-38.98-35.058z" fill="#5d5d5d" class="B C D"/></clipPath><filter id="AA"><feGaussianBlur stdDeviation=".896"/></filter><filter id="AB"><feGaussianBlur stdDeviation="2.038"/></filter><filter id="AC"><feGaussianBlur stdDeviation="1.83"/></filter><filter id="AD" x="-.071" width="1.142" y="-.11" height="1.22"><feGaussianBlur stdDeviation="3.497"/></filter><filter id="AE"><feGaussianBlur stdDeviation=".863"/></filter><filter id="AF"><feGaussianBlur stdDeviation=".761"/></filter><filter id="AG"><feGaussianBlur stdDeviation="2.402"/></filter><filter id="AH"><feGaussianBlur stdDeviation="2.311"/></filter><linearGradient id="AI" xlink:href="#Ai"><stop offset="0" stop-color="#00f5f1"/><stop offset="1" stop-color="#00f5f1" stop-opacity="0"/></linearGradient><radialGradient xlink:href="#AI" id="AJ" gradientTransform="matrix(1.5841831,0.2374271,-0.28448622,1.7867905,377.00167,204.32421)" cx="-673.012" cy="-56.807" fx="-673.012" fy="-56.807" r="56.164"/><radialGradient id="AK" gradientTransform="matrix(2.5479365,0,0,1.1663574,-98.729324,8.476148)" cx="63.781" cy="64.754" fx="63.781" fy="64.754" r="45.882" xlink:href="#Ai"><stop offset="0" stop-color="#fff"/><stop offset=".541" stop-color="#f5f5f5"/><stop offset="1" stop-color="#aeaeae"/></radialGradient><linearGradient xlink:href="#D" id="AL" x1="76.535" y1="34.147" x2="76.535" y2="-71.927"/><radialGradient id="AM" gradientTransform="matrix(3.1926015,-1.5465028e-7,2.5501554e-7,5.2645424,320.6756,-464.22387)" cx="-146.253" cy="108.857" fx="-146.253" fy="108.857" r="2.683" xlink:href="#Ai"><stop offset="0" stop-color="#252525"/><stop offset=".454" stop-color="#252525"/><stop offset="1"/></radialGradient><linearGradient xlink:href="#M" id="AN" x1="76.535" y1="34.147" x2="76.535" y2="-71.927"/><linearGradient xlink:href="#D" id="AO" x1="75.807" y1="119.125" x2="75.807" y2="80.701"/><linearGradient xlink:href="#E" id="AP" x1="71.04" y1="79.525" x2="63.439" y2="76.925"/><linearGradient id="AQ" x1="54.88" y1="75.539" x2="66.975" y2="81.424" xlink:href="#Ai"><stop offset="0" stop-color="#c39577"/><stop offset="1" stop-color="#fcd9bc" stop-opacity="0"/></linearGradient><radialGradient id="AR" gradientTransform="matrix(0.64212091,-0.00179345,0.00208912,0.74798255,-146.15578,-243.05313)" cx="324.398" cy="396.093" fx="330.691" fy="384.509" r="22.445" xlink:href="#Ai"><stop offset="0" stop-color="#faf0e5"/><stop offset=".38" stop-color="#f7e7d6"/><stop offset="1" stop-color="#ffd9b9"/></radialGradient><radialGradient xlink:href="#J" id="AS" gradientTransform="matrix(1,0,0,2.5768702,43.133514,-626.29699)" cx="303.719" cy="397.177" fx="303.719" fy="397.177" r=".796"/><radialGradient xlink:href="#J" id="AT" gradientTransform="matrix(1,0,0,2.5768702,-372.5,-950.79699)" cx="303.719" cy="397.177" fx="303.719" fy="397.177" r=".796"/><linearGradient id="AU" x1="76.833" y1="64.512" x2="147.9" y2="13.938" xlink:href="#Ai"><stop offset="0" stop-color="#844d30"/><stop offset="1" stop-color="#844d30" stop-opacity="0"/></linearGradient><linearGradient id="AV" x1="65.411" y1="46.511" x2="65.411" y2="25.116" xlink:href="#Ai"><stop offset="0" stop-color="#0d0602"/><stop offset=".5" stop-color="#28180e"/><stop offset="1" stop-color="#79523a"/></linearGradient><linearGradient id="AW" x1="-19.055" y1="66.362" x2="-32.732" y2="49.112" xlink:href="#Ai"><stop offset="0" stop-color="#dfcbba"/><stop offset="1" stop-color="#dfcbba" stop-opacity="0"/></linearGradient><linearGradient id="AX" x1="66.529" y1="22.189" x2="66.529" y2="2.324" xlink:href="#Ai"><stop offset="0" stop-color="#4d2710" stop-opacity=".96"/><stop offset="1" stop-color="#79523a"/></linearGradient><radialGradient id="AY" gradientTransform="matrix(0.82083015,0,0,0.71976607,10.97379,29.001313)" cx="64.157" cy="88.894" fx="64.157" fy="88.894" r="4.696" xlink:href="#Ai"><stop offset="0" stop-color="#c92424"/><stop offset=".601" stop-color="#9d1e1e" stop-opacity=".98"/><stop offset="1" stop-color="#711919" stop-opacity=".96"/></radialGradient><linearGradient xlink:href="#L" id="AZ" x1="63.625" y1="66.858" x2="63.625" y2="100.34"/><linearGradient xlink:href="#L" id="Aa" x1="63.625" y1="72.914" x2="63.625" y2="96.399"/><radialGradient xlink:href="#C" id="Ab" gradientTransform="matrix(0.69622227,6.3011342e-8,-3.2472601e-7,3.5684399,19.145351,-293.06771)" cx="64.182" cy="116.1" fx="64.585" fy="111.88" r="7.946"/><radialGradient xlink:href="#D" id="Ac" gradientTransform="matrix(3.1926015,-1.5465028e-7,2.5501554e-7,5.2645424,320.67562999999996,-464.23382)" cx="-146.253" cy="108.857" fx="-146.253" fy="108.857" r="2.683"/><path id="Ad" d="M11.42 108.234l.063 2.188 1.5 1.75c12.092 6.884 27.42 8.208 40 8.47l9.063.094h4l8.875-.062c12.614-.25 28.032-1.58 40.187-8.5l1.5-1.75s.062-.846.063-2.187c-.022.76-.062 1.188-.062 1.188l-1.5 1.75c-12.156 6.92-27.574 8.25-40.187 8.5l-8.875.063c-.5-.001-.996 0-1.5 0h-1c-.47 0-1.012-.001-1.5 0a421.61 421.61 0 0 1-9.062-.094c-12.58-.26-27.908-1.585-40-8.47l-1.5-1.75s-.04-.427-.062-1.187z"/><path id="Ae" d="M-148.936 97c4.073 8.364 4.92 15.874 5.365 23.693-.112-8.245-2.353-22.895-5.365-23.693z"/><path id="Af" d="M50.02 62.304c1.25 5.26 4.74 17.082.413 19.896.534 5.11 5.845 7.04 12.386 8.168h1.24C70.6 89.24 75.91 87.31 76.444 82.2c-4.328-2.814-.837-14.637.413-19.896L63.44 67.712 50.02 62.304z"/><path id="Ag" d="M67.452 92.594l-2.584 3.933-2.826-.006-2.338-3.707 2.87-3.21 2.132.01 2.746 2.98z"/><path id="Ah" d="M-248.592-75.846c0 41.188-29.185 74.578-65.186 74.578s-65.186-33.4-65.186-74.578 29.185-74.578 65.186-74.578 65.186 33.4 65.186 74.578z"/><linearGradient id="Ai" gradientUnits="userSpaceOnUse"/></defs><g transform="matrix(1.148602 0 0 1.148602 -.142715 -29.247566)"><g transform="matrix(.87163 0 0 .87163 7.720335 16.350875)" class="B"><use xlink:href="#Ad" filter="url(#A)"/><use xlink:href="#Ad" fill-opacity=".855" filter="url(#A)"/></g><path d="M76.836 81.956c-.42 13.932-1.56 27.15-3.813 39.25 10.995-.218 24.433-1.377 35.03-7.41l1.307-1.525s.58-6.056-1.662-12.148c-.735-1.998-.88-3.252-3.405-4.385-7.318-3.286-21.445-8.186-26.23-11.74l-1.226-2.043zm-26.72.245L49.026 84c-4.786 3.553-18.913 8.454-26.23 11.74-2.524 1.133-2.67 2.388-3.405 4.385-2.242 6.092-1.662 12.148-1.662 12.148l1.307 1.525c10.54 6 23.9 7.154 34.865 7.382-2.236-12.02-3.36-25.147-3.786-38.978zM53.9 121.18l7.9.082c-2.4.002-5.09-.023-7.9-.082z" fill="#2d2d35" class="B"/><path d="M51.844 79.25l-1.72 2.938L49.03 84c-4.786 3.553-18.932 8.464-26.25 11.75-2.524 1.133-2.67 2.377-3.406 4.375-2.242 6.092-1.656 12.156-1.656 12.156l1.313 1.53c10.54 6 23.9 7.148 34.875 7.375l7.906.063h3.47l7.75-.03c10.995-.218 24.436-1.374 35.03-7.406l1.28-1.53s.586-6.064-1.656-12.156c-.735-1.998-.882-3.242-3.406-4.375-7.318-3.286-21.433-8.197-26.22-11.75l-1.094-1.812-.125-.22c-.005-.008.005-.023 0-.03L75.22 79.25c-2.24 3.912-6.247 8.238-11.687 10.5-4.62-2.05-10.108-7.415-11.687-10.5z" fill="url(#AK)" class="B"/><path transform="matrix(.82083 0 0 .82083 10.97379 91.587865)" d="M80.238-12.01v1l1.5 2.47c5.83 4.33 23.023 10.31 31.938 14.313 3.075 1.38 3.26 2.9 4.156 5.344 1.707 4.64 2.06 9.25 2.094 12.062.044-2.6-.154-7.792-2.094-13.062-.896-2.434-1.08-3.963-4.156-5.344C104.76.767 87.57-5.214 81.738-9.543l-1.5-2.47zm-32.562.28l-1.312 2.187C40.533-5.214 23.3.767 14.395 4.77c-3.075 1.38-3.26 2.9-4.156 5.344-1.852 5.033-2.11 9.982-2.094 12.687.06-2.837.455-7.234 2.094-11.687.896-2.434 1.08-3.963 4.156-5.344C23.3 1.767 40.533-4.214 46.363-8.543l1.313-2.187v-1z" fill="url(#AL)" filter="url(#m)" class="B G"/><use xlink:href="#Ae" transform="matrix(-.87163 0 0 .87163 -24.126678 13.043079)" opacity=".19" fill="url(#AM)" filter="url(#X)" class="B"/><g transform="matrix(.82083 0 0 .82083 10.97379 91.587865)" class="B"><path d="M80.238-12.01c-.51 16.973-1.912 33.07-4.656 47.813.06-.001.127.001.188 0 2.624-14.47 3.97-30.22 4.47-46.812l1.5 2.47c5.83 4.33 23.023 10.31 31.938 14.313 3.075 1.38 3.26 2.9 4.156 5.344 1.707 4.64 2.06 9.25 2.094 12.062.044-2.6-.154-7.792-2.094-13.062-.896-2.434-1.08-3.963-4.156-5.344C104.76.767 87.57-5.214 81.738-9.543l-1.5-2.47zm-32.562.28l-1.312 2.187C40.533-5.214 23.3.767 14.395 4.77c-3.075 1.38-3.26 2.9-4.156 5.344-1.852 5.033-2.11 9.982-2.094 12.687.06-2.837.455-7.234 2.094-11.687.896-2.434 1.08-3.963 4.156-5.344C23.3 1.767 40.533-4.214 46.363-8.543l1.313-2.187c.506 16.47 1.834 32.126 4.438 46.5.06.001.126-.001.188 0-2.724-14.645-4.107-30.65-4.625-47.5z" opacity=".683" fill="url(#AN)" filter="url(#Z)" class="G"/><path d="M47.676-11.73l-1.312 2.187C40.533-5.214 23.3.767 14.395 4.77c-3.075 1.38-3.26 2.9-4.156 5.344-1.852 5.033-2.11 9.982-2.094 12.687.06-2.837.455-7.234 2.094-11.687.896-2.434 1.08-3.963 4.156-5.344C23.3 1.767 40.533-4.214 46.363-8.543l1.313-2.187v-1z" opacity=".683" fill="#555" filter="url(#Z)" class="G"/></g><use xlink:href="#Ad" transform="matrix(.87163 0 0 .87163 7.720335 16.350875)" opacity=".265" fill="url(#AO)" filter="url(#Y)" class="B"/><path d="M77.692 60.695c1.5-.126 2.94-1.177 4.6-9 .162-1.63-2.014-1.785-2.133-.344-1.617 3.118-2.326 6.235-2.477 9.353zm-29.35 1.1c-1.5-.126-2.94-1.177-4.6-9-.162-1.63 2.014-1.785 2.133-.344 1.617 3.118 2.326 6.235 2.477 9.353z" fill="#ddc2a4" class="B"/><use xlink:href="#Af" fill="#d3b79a" class="B E"/><use xlink:href="#Af" fill="url(#AP)" class="B"/><path d="M50.06 62.383c1.246 5.244 4.727 17.034.412 19.84.532 5.096 5.83 7.022 12.35 8.145h1.235c6.523-1.124 11.82-3.05 12.35-8.145-4.316-2.806-.834-14.596.412-19.84l-13.38 5.392-13.38-5.392z" fill="url(#AQ)" class="B"/><path d="M324.18 363.78c-7.777.205-13.878 5.86-17.006 12.813-3.187 7.08-2.723 15.536-.812 25.313s5.288 22.127 8.475 25.805c3.02 3.486 6.89 2.856 9.344 2.78h.438c2.455.075 6.323.705 9.344-2.78 3.187-3.678 7.565-16.03 9.475-25.805s2.374-18.23-.812-25.312c-3.13-6.952-10.23-12.608-18.006-12.812h-.437z" transform="matrix(.821132 0 0 .726056 -203.44264 -234.61695)" clip-path="url(#H)" fill="#382509" filter="url(#G)" class="B"/><path d="M62.804 30.545c0 3.234-13.062 1.51-15.498 6.92-2.48 5.51-1.34 11.976-.633 19.694 1.047 11.424 7.15 15.52 9.63 18.38 2.35 2.713 4.6 2.222 6.5 2.164.098 0 .235-.004.34 0 1.91.058 4.15.55 6.5-2.164 2.48-2.862 9.024-7.397 9.63-18.38.427-7.74 1.848-14.185-.633-19.694-2.436-5.41-9.443-6.76-15.498-6.92h-.34z" fill="url(#AR)" class="B"/><path d="M347.3 395.438c-.093-.74-1.155-.055-1.237.884s.755 3.214.906 2.873c1.212-2.736.463-2.708.33-3.757z" transform="matrix(-.769373 0 0 .778034 345.77796 -256.61405)" fill="url(#AS)" filter="url(#I)" class="B"/><path d="M42.69 44.358C39.925 18.085 52.708 28.28 63.348 24.755c10.088-3.343 23.024-4.664 20.075 21.35 7.744-16.107 8.318-29.958-5.26-34.49C80.26-.935 60.28-1.778 48.65 6.88c-10.827 8.06-12.016 17.93-5.96 37.48z" transform="matrix(.764811 0 0 .773928 14.383875 23.317592)" clip-path="url(#O)" fill="#b35c27" stroke="#000" stroke-width=".012" filter="url(#N)" class="B E"/><path d="M-68.334 70.938c-.092-.74-1.155-.055-1.237.884s.755 3.214.906 2.873c1.212-2.736.463-2.708.33-3.757z" transform="matrix(.769373 0 0 .778034 99.586709 -3.041691)" fill="url(#AT)" filter="url(#I)" class="B"/><path d="M117.175 7.282c-8.146.215-17.588 2.953-21 10.53-3.4 7.528-1.815 16.08-.906 26 1.386 15.125 9.758 20.96 12.72 24.375 1.654 1.908 3.406 2.814 5.03 3.125s3.065.098 4.22.063h.375c1.154.035 2.594.25 4.22-.062s3.377-1.217 5.03-3.125c2.956-3.41 11.912-9.796 12.72-24.406.546-9.898 2.496-18.414-.906-25.97-3.412-7.577-12.854-10.316-21-10.53h-.5zm.03 2.188h.438c7.5.198 16.15 2.85 19.03 9.25 3.01 6.682 1.276 14.838.72 24.938-.76 13.774-8.732 19.107-12.187 23.094-1.385 1.597-2.583 2.146-3.78 2.375s-2.435.103-3.75.063c-.187-.006-.366 0-.47 0h-.03c-1.315.04-2.552.167-3.75-.062s-2.397-.778-3.78-2.375c-3.45-3.98-10.868-8.726-12.188-23.125-.918-10.024-2.303-18.196.72-24.906 2.878-6.392 11.538-9.043 19.03-9.25z" transform="matrix(.773927 0 0 .773927 -27.739867 23.317629)" clip-path="url(#Q)" fill="url(#AU)" filter="url(#l)" class="B"/><path d="M46.623 57.612c-1.117-21.696 9.476-12.475 16.772-15.51C71.413 38.77 80.87 38.36 78.558 59c5.575-12.5 4.632-21.66-4.125-26.087-3.53-5.014-10.876-5.55-17.135-3.752-8.08 2.19-12.042 7.933-12.763 15.942-.116 3.024.36 6.87 2.087 12.5z" fill="url(#AV)" class="B"/><path d="M-29.75 50.612l2.25 4.5c1.53 6.14.922 5.357.735 8.333-1.777-4.417-.456-7.167-6.235-10.333l-6.25-4 9.5 1.5z" transform="matrix(.769373 0 0 .778034 102.56679 -2.894841)" fill="url(#AW)" filter="url(#K)" class="B"/><path d="M-34.2 47.803l6.7 7.31c1.53 6.14.922 5.357.735 8.333C-28.542 59.03-29.43 52.867-35.2 49.7l-4.04-.588 5.04-1.31z" transform="matrix(-.754864 .150482 .148612 .763362 15.804366 2.877071)" fill="url(#AW)" filter="url(#K)" class="B"/><path d="M78.502 9.656l-.187.75.313.094c-.007-.298-.064-.567-.125-.844zM59.355 20.9c-8.9-.654-17.336-3.278-17.166 17.882.436-19.997 8.687-17.314 17.448-15.88 1.14.187 7.907-1.9 8.736-2.05 10.315-1.878 15.63-1.826 15.848 16.368.47-20.083-5.72-19.606-16.486-18.21-.812.105-6.257 2.047-8.38 1.89zM40.02 24.813c-.13 5.037-.302 11.224 2.262 19.5l-.094-2.28c-2.18-7.073-1.967-12.617-2.168-17.22zm49.262.875C89.08 30.8 87.146 36.82 83.97 43.53l-.25 2.563c3.77-7.844 5.876-14.773 5.563-20.406z" transform="matrix(.764811 0 0 .773928 14.383875 23.317592)" opacity=".322" fill="url(#AX)" filter="url(#S)" class="B"/><g transform="matrix(.764811 0 0 .773928 14.383875 24.09152)" class="H B I"><path d="M62.406 9.688c-4.755.253-9.6 1.9-10.72 2.78-.218.17-.357.303-.562.47 4.788-1.44 9.498-1.094 12.97-1.094 2.678 0 5.612.14 8.53.625-.008-.44.034-.88.125-1.312-.122-.095-.018-.058-.53-.28-1.814-.79-5.85-1.398-9.812-1.187z" fill-opacity=".3"/><path d="M62.313 8.063c-4.97.264-9.984 1.843-11.625 3.125-3.756 2.936-5.884 5.328-7 8.188.782-.873 1.61-1.65 2.53-2.312 5.96-4.282 12.906-3.594 17.875-3.594 3.492 0 7.246.193 10.813 1.188-.664-1.065-.824-2.37-.437-3.562.22-.672.142-.466.063-.594s-.588-.646-1.687-1.125c-2.2-.957-6.4-1.533-10.53-1.312z" fill-opacity=".23"/></g><path d="M62.28 7.344c-5.066.27-10.16 1.82-12.03 3.28-5.084 3.973-7.328 7.107-8.062 11.688-.034.214-.005.496-.03.72 1.242-2.205 2.69-4.106 4.5-5.406 5.69-4.088 12.435-3.437 17.438-3.437 6.16 0 13.012.294 18 5.188 1.655 1.623 2.853 3.817 3.813 6.28-.01-.153.016-.35 0-.5-.483-4.62-2.49-7.39-8.53-9.406a3.53 3.53 0 0 1-2.219-4.437c.272-.834.157-.886-.03-1.187s-.783-.9-1.97-1.406c-2.372-1.032-6.654-1.6-10.875-1.375z" transform="matrix(.688527 0 0 .696735 20.937476 24.589391)" fill-opacity=".182" class="B H I"/><path d="M78.745 12.633c.427 3.25-.747 5.22-2.846 6.45l2.846-6.45z" transform="matrix(.764811 0 0 .773928 14.383875 23.317592)" fill-opacity=".3" filter="url(#U)" class="B H"/><g transform="matrix(.82083 0 0 .82083 10.97379 20.017285)" class="B"><path d="M65.653 93.193c2.354 8.647 3.922 17.394 5.882 30.064-5.174.046-9.667.074-15.322 0 1.692-12.507 3.087-19.872 6.03-30.058l3.4-.005z" fill="#1f0b10" fill-opacity=".588" filter="url(#h)"/><path d="M68.806 88.42l-3.148 4.79-3.442-.008-2.85-4.516 3.497-1.9 2.597.013 3.345 1.63z" filter="url(#d)" class="E"/></g><use xlink:href="#Ag" fill="url(#AY)" class="B"/><path d="M-114.062 74.97l-2 3.375c-.85 1.622-1.858 5.655-2.438 7.266l6.72 12.96 11.03-9.664-1.47-1.656c-4.915-2.732-10.207-9.083-11.844-12.28zm26.813 0c-2.305 4.023-6.247 9.45-11.53 12.186l-1.53 1.75 10.97 9.664 7.164-13.316c-.646-1.726-2.222-5.42-3.227-7.222l-1.844-3.062z" transform="matrix(.87163 0 0 .87163 151.27867 13.043079)" clip-path="url(#V)" filter="url(#c)" class="B E"/><path transform="matrix(.795877 0 0 .795877 12.651481 21.594776)" clip-path="url(#j)" d="M49.263 72.055l-2.2 3.696c-.932 1.777-1.692 3.54-2.327 5.305L51.76 96.9l10.986-11.807-.513-.72c-5.383-2.992-11.178-8.82-12.97-12.32zm29.365 0c-2.524 4.406-6.84 9.22-12.63 12.218l-.582.82L76.334 96.9l7.016-15.71c-.707-1.9-1.603-3.81-2.704-5.784l-2.02-3.354z" fill="#b67e58" filter="url(#i)" class="B E"/><path d="M51.858 79.26L50.115 82.2c-.742 1.414-1.347 2.818-1.852 4.222l5.584 12.61 8.744-9.397-.41-.572c-4.284-2.38-8.897-7.02-10.323-9.806zm23.37 0c-2.01 3.506-5.445 7.34-10.05 9.724l-.463.654 8.69 9.397 5.584-12.502c-.563-1.505-1.276-3.03-2.152-4.603l-1.607-2.67z" fill="url(#AZ)" class="B"/><path d="M48.454 85.933l-.19.463 5.584 12.61L62.6 89.6l-.354-.5-8.39 9.016-5.393-12.203zm30.344.11l-5.393 12.094-8.335-9.016-.354.5 8.69 9.397 5.584-12.502-.19-.463z" fill="url(#Aa)" class="B"/><use xlink:href="#Ag" opacity=".426" fill="url(#AY)" class="B"/><path d="M64.864 96.513c1.932 7.098 3.22 14.278 4.828 24.677-4.247.038-7.935.06-12.577 0 1.39-10.266 2.534-16.312 4.95-24.673l2.8-.004z" fill="url(#Ab)" class="B"/><path d="M65.656 121.663l-3.406.03h-.375l-.125.344c-2.95 10.207-4.338 18.007-6.03 30.525l-.03.22.125.156c2.44 3.115 4.6 5.05 6.53 6.094s3.675 1.204 5.094.72c2.838-.97 4.284-4.256 4.594-7.062v-.125c-1.96-12.675-3.545-21.85-5.906-30.525l-.094-.375h-.375zm-.406 1c2.3 8.487 3.855 17.518 5.78 29.963-.288 2.536-1.652 5.386-3.906 6.156-1.13.387-2.528.322-4.28-.625-1.71-.924-3.78-2.712-6.094-5.625 1.654-12.197 3.034-19.94 5.875-29.838l2.625-.03z" transform="matrix(.82083 0 0 .82083 10.97379 -4.016669)" clip-path="url(#f)" fill="#4b1c1c" filter="url(#e)" class="B E"/><path d="M75.095 33.494c-.162-.752 2.58 3.143-.67 5.635.974-2.25 1.053-5.165.67-5.635z" opacity=".43" fill="#e6d26d" fill-opacity=".353" filter="url(#B)"/><use xlink:href="#Ae" x="164.701" y="-3.785" transform="matrix(.87163 0 0 .87163 7.720335 16.350875)" opacity=".178" fill="url(#Ac)" filter="url(#X)" class="B"/></g><g transform="matrix(.620054 0 0 .620054 -3.388481 53.684422)"><g class="B"><path transform="matrix(.916936 0 0 .916936 -292.72175 -62.621153)" d="M340.052 154.59s19.962-26.108 44.026-21.4 53.392 42.9 53.392 42.9c-8.57 13.14-30.058 17.805-46.877 19.114l-6.69-1.182c-20.824-10.12-36-19.16-43.853-39.442z" opacity=".57" filter="url(#AH)"/><path transform="matrix(.95453 0 0 .916936 -.424992 1.20388)" d="M20.438 84.984s19.176-26.108 42.292-21.4 51.29 42.9 51.29 42.9c-8.232 13.14-28.862 17.805-45.018 19.114 16.846-.055 39.428 4.62 57.843-17.494 0 0-30.737-52.5-61.634-57.91S8.838 85.583 8.838 85.583c9.495 22.763 30.052 32.62 53.726 38.842-20.004-10.12-34.583-19.16-42.126-39.442z" opacity=".36" filter="url(#AD)"/><path d="M19.084 79.13s18.304-23.94 40.37-19.623S108.4 98.852 108.4 98.852c-7.857 12.048-27.562 16.326-42.983 17.526l-6.133-1.084c-19.094-9.28-33.01-17.57-40.2-36.166z" fill="url(#o)"/></g><use xlink:href="#Ah" transform="matrix(.352207 -.065652 .052687 .356712 172.27163 90.479733)" fill="url(#v)"/><g transform="matrix(.351911 .043596 -.05463 .360073 273.85148 130.69175)" class="B"><path d="M-618.75-55.594c9.375-9.375 45.312-35.937 45.312-35.937l-42.187 42.187h47.656l-49.22 3.906 45.312 39.062-48.437-32.812 17.97 46.094-7.812-57.812L-655.47-8.72l35.938-56.25-3.906 17.97h-53.125l49.22-13.28-.78 17.187-29.687-57.812 37.5 54.687-10.156-64.062 17.97 60.156 15.625-51.562-30.47 48.437 54.687-6.25-51.562 8.594 44.53 17.188L-621.875-47-635.937-5.594-613.28-47.78l-48.437 8.594 57.813 2.344-14.844-18.75z" opacity=".576" fill="#060606" filter="url(#AB)"/><g transform="matrix(-.999898 .014282 -.014282 -.999898 -1302.3542 -102.2609)"><path d="M-675.78-64.187c9.375-9.375 45.312-35.937 45.312-35.937l-42.187 42.187H-625l-49.22 3.906 45.312 39.062-48.437-32.812 17.97 46.094-7.812-57.812-45.312 42.187 35.938-56.25-3.906 17.97-55.43-18.613 51.523 5.332-.78 17.187-29.687-57.812 37.5 54.687-10.156-64.062 17.97 60.156 15.625-51.562-30.47 48.437 54.687-6.25-51.562 8.594 44.53 17.188-42.187-13.28-14.062 41.406 22.656-42.187L-737.9-45.74l76.96.302-14.844-18.75z" fill="#00f5f1" filter="url(#AC)" class="F"/><path d="M-675.78-64.187c9.375-9.375 52.857-13.6 52.857-13.6l-49.732 19.84 51.7 4.643-53.262-.737 32.78 49.96-35.906-43.71 46.114 32.555-35.958-44.274-29.896 58.89 20.52-72.95-3.906 17.97-50.66-5.164 46.754-8.117-.78 17.187-44.623-40.608 52.435 37.483 1.785-52.65 6.027 48.744 29.134-30.17-43.978 27.044 58.73-1.607-55.606 3.95 51.495 33.424-49.15-29.518 1.456 59.463 7.138-60.244-39.868 49.053 49.243-38.116-14.844-18.75z" fill="url(#u)" filter="url(#AC)" class="F"/><path d="M-676.096-56.55c9.375-9.375 53.7-34.927 53.7-34.927l-50.25 33.54 57.692-6.804-59.255 10.7 50.095 43.738-47.748-37.687 20.02 55.093-15.335-66.613-66.724 27.637 55.787-23.48-2.344-.25-38.987-53.773 47.645 50.83-13.346 6.848 72.218-.777-64.405-2.348-10.156-64.062 16.5 60.89 5.914-61.54-10.63 60.6 39.545-50.28-45.08 49.705 67.834 23.318-65.5-19.412-28.17 50.746 36.762-51.528-71.01-13.715 79.832 18.737-14.604-5.196z" fill="url(#AJ)" class="F"/><path d="M-676.096-56.55c9.375-9.375 5.258-67.244 5.258-67.244l-1.82 65.856-61.453-40.274 59.9 44.18 36.05 54.47-33.703-48.42-13.572 53.243 18.256-64.762-66.724 27.637 55.787-23.48-2.344-.25-38.987-53.773 47.645 50.83-13.346 6.848L-621.08-35.3l-56.264-19.512-10.156-64.062 16.5 60.89 56.823 4.19-61.54-5.13 50.335-36.763-55.87 36.19 57.052 37.504-54.708-33.598-28.17 50.746 36.762-51.528-71.01-13.715 79.832 18.737-14.604-5.196z" fill="url(#n)" class="F"/></g></g><path d="M65.023 81.174c.52 5.95-3.266 11.55-8.46 12.506s-9.824-3.1-10.345-9.04 3.266-11.55 8.46-12.506 9.824 3.1 10.345 9.04z"/><path d="M-255.092-75.846c0 41.188-26.275 74.578-58.686 74.578s-58.686-33.4-58.686-74.578 26.275-74.578 58.686-74.578 58.686 33.4 58.686 74.578z" transform="matrix(.224048 -.112752 .113454 .131788 135.63887 44.530713)" fill="url(#t)"/><use xlink:href="#Ah" transform="matrix(.352207 -.065652 .052687 .356712 172.27163 90.479733)" opacity=".676" fill="url(#s)"/><use xlink:href="#Ah" transform="matrix(.144231 -.026587 .01265 .144457 101.83733 85.521056)" fill="url(#r)"/><path transform="matrix(1.031593 0 0 1.031593 -4.064854 -11.151929)" d="M55.717 67.256c-18.652.46-33.22 19.53-33.22 19.53.087.224.192.435.28.656 1.438-1.824 18.407-22.692 38.875-18.687 20.52 4.014 45.077 35.107 47.063 37.656.122-.175.258-.352.375-.53 0 0-26.048-33.94-47.438-38.125-2.005-.392-4.008-.547-5.937-.5zM12.06 87.912c-.05.075-.28.406-.28.406 8.786 20.233 27.813 29 49.72 34.53l-4.406-2.187c-19.817-5.538-36.736-14.3-45.03-32.75zm108.53 19.844c-14.36 16.223-31.35 15.77-45.625 15.28a121.31 121.31 0 0 1-7.531.844c15.587-.05 36.492 4.126 53.53-15.53l-.375-.594z" filter="url(#w)" class="B"/><use xlink:href="#Ah" transform="matrix(.144231 -.026587 .01265 .144457 101.83733 85.521056)" fill="url(#q)"/><g class="B"><path transform="matrix(.916936 0 0 .916936 -292.72175 -62.621153)" d="M326.976 126.607c45-60 93-20 122 25-36.954-72.018-81-97-122-25z" opacity=".502" fill="#101010" filter="url(#AG)"/><path d="M55.47 13.03c-16.156-.363-32.515 11.68-48.375 39.53C48.356-2.454 92.378 34.207 118.97 75.47c-19.6-38.177-41.36-61.94-63.5-62.437zm.875 33.75C29.372 46.803 8 79.688 8 79.688c9.063 20.872 28.684 29.89 51.28 35.594-19.094-9.28-32.988-17.56-40.187-36.156 0 0 18.3-23.942 40.375-19.625s48.938 39.344 48.938 39.344c-7.857 12.048-27.547 16.33-42.97 17.53 16.08-.05 37.64 4.247 55.22-16.03 0 0-29.352-48.134-58.844-53.094a32.82 32.82 0 0 0-5.469-.469z" fill="url(#p)"/><path transform="matrix(.95453 0 0 .916936 -.424992 1.20388)" d="M59.78 50.847C31.942 50.87 9.875 86.19 9.875 86.19c.166.397.35.78.523 1.17 2.674-4.1 26.34-39.072 55.017-34.05 28.47 4.984 56.487 50 60.036 55.88.235-.272.475-.52.708-.8 0 0-30.304-51.72-60.744-57.05-1.902-.333-3.778-.494-5.634-.493zM19.32 85.8l-.493.647c6.333 17.03 17.707 26.027 33.127 34.482a171.97 171.97 0 0 0 8.374 2.432c-19.268-9.75-33.442-18.502-41.01-37.56zm94.977 21.836c-8.533 12.136-28.153 16.51-43.626 17.764 3.842-.013 7.988.237 12.315.34 12.872-2.43 25.907-7.424 32.02-17.18l-.708-.924z" fill="#b3b3b3" filter="url(#AE)"/><path transform="matrix(.916936 0 0 .916936 -292.72175 -62.621153)" d="M380.014 82.723c-.686-.02-1.376.007-2.062.03-13.81.45-27.74 9.556-41.375 29.238 1.313-1.288 2.622-2.52 3.938-3.662 29.934-38.6 61.104-27.31 89.03 12.758 1.5 1.542 2.96 3.138 4.406 4.755-17.003-26.545-35.33-42.58-53.937-43.118z" fill="#c3c3c3" filter="url(#AF)"/><g transform="matrix(1.031593 0 0 1.031593 -4.064854 -11.151929)"><path clip-path="url(#z)" d="M55.403 66.76c-18.652.46-33.22 19.53-33.22 19.53l2.156 1.78S41.214 66 61.56 69.98s45.125 36.28 45.125 36.28l2.094-.875S82.73 71.446 61.34 67.26c-2.005-.392-4.008-.547-5.937-.5z" fill="#1f1f1f" filter="url(#AA)"/><path clip-path="url(#x)" d="M54.307 32.98c-12.557.112-25.565 6.19-38.375 20.938a159.92 159.92 0 0 0-4.875 8.031c39.998-53.33 82.66-17.78 108.438 22.22-1.717-3.346-3.47-6.545-5.22-9.656C98.218 52.01 76.993 32.78 54.307 32.98z" fill="#161616" filter="url(#y)"/></g></g></g></svg>